<svg id="Layer_1" data-name="Layer 1" xmlns="http://www.w3.org/2000/svg" viewBox="0 0 1920 1080"><defs><style>.cls-1{fill:#265ce0;}.cls-2,.cls-4,.cls-5{fill:none;}.cls-3{fill:#3369ed;}.cls-4,.cls-5{stroke:#3369ed;stroke-miterlimit:10;}.cls-4{stroke-width:40px;}.cls-5{stroke-width:35px;}</style></defs><rect class="cls-1" width="1920" height="1080"/><rect class="cls-2" x="474" y="770.63" width="421" height="421"/><rect class="cls-2" x="474" y="770.63" width="421" height="421"/><rect class="cls-2" x="474" y="770.63" width="421" height="421"/><rect class="cls-2" x="474" y="770.63" width="421" height="421"/><polygon class="cls-3" points="1622.28 307.68 1722.08 208.56 1783 270.43 1683.97 369.28 1783 468.64 1721.8 529.78 1622.28 431.1 1523.02 530 1461.56 467.5 1561.13 369.28 1461.56 269.58 1523.59 208.56 1622.28 307.68"/><polygon class="cls-3" points="1495.06 826.81 1551.26 771 1585.56 805.84 1529.8 861.5 1585.56 917.45 1551.1 951.88 1495.06 896.31 1439.17 952 1404.56 916.81 1460.63 861.5 1404.56 805.36 1439.49 771 1495.06 826.81"/><polygon class="cls-3" points="661.06 173.81 717.26 118 751.56 152.84 695.8 208.5 751.56 264.45 717.1 298.88 661.06 243.31 605.17 299 570.56 263.81 626.63 208.5 570.56 152.36 605.49 118 661.06 173.81"/><circle class="cls-4" cx="271.5" cy="492.5" r="101.5"/><circle class="cls-4" cx="608.5" cy="841.5" r="86.5"/><circle class="cls-5" cx="1087.5" cy="754.5" r="65"/></svg>